<svg xmlns="http://www.w3.org/2000/svg" width="30" height="30" fill="none">
  <path fill="#D047FF" d="M6.84 4.334c3.814-2.832 5.72-4.247 7.898-4.33.175-.006.35-.006.524 0 2.178.083 4.084 1.498 7.898 4.33 3.813 2.832 5.72 4.247 6.469 6.339.06.167.114.337.162.51.597 2.141-.131 4.432-1.588 9.013l-2.461 7.741C25.35 29.167 24.229 30 22.964 30c-1.613 0-2.92-1.337-2.92-2.985v-4.018c0-1.546-1.228-2.8-2.742-2.8h-4.604c-1.514 0-2.741 1.254-2.741 2.8v4.018C9.957 28.663 8.649 30 7.036 30c-1.265 0-2.387-.833-2.778-2.063l-2.461-7.74C.34 15.614-.388 13.323.209 11.181c.048-.172.102-.342.162-.51.749-2.09 2.656-3.506 6.47-6.338Z"/>
</svg>
