<svg xmlns="http://www.w3.org/2000/svg" width="30" height="30" fill="none">
  <path fill="#D047FF" d="M11.729 15c0-1.643 1.464-2.975 3.271-2.975s3.272 1.332 3.272 2.975-1.465 2.975-3.272 2.975c-1.807 0-3.271-1.332-3.271-2.975Z"/>
  <path fill="#D047FF" fill-rule="evenodd" d="M10.035 3.407c1.425-4.543 8.505-4.543 9.93 0 .442 1.407 2.032 2.242 3.593 1.886 5.038-1.148 8.578 4.427 4.965 7.82-1.12 1.052-1.12 2.722 0 3.773 3.613 3.394.073 8.97-4.965 7.82-1.561-.355-3.151.48-3.593 1.887-1.425 4.543-8.505 4.543-9.93 0-.442-1.407-2.032-2.242-3.593-1.886-5.038 1.148-8.578-4.427-4.965-7.82 1.12-1.052 1.12-2.722 0-3.773-3.613-3.394-.073-8.97 4.965-7.82 1.561.355 3.151-.48 3.593-1.887ZM15 10.04c-3.011 0-5.452 2.22-5.452 4.959 0 2.738 2.44 4.959 5.452 4.959 3.011 0 5.453-2.22 5.453-4.959 0-2.739-2.442-4.959-5.453-4.959Z" clip-rule="evenodd"/>
</svg>
