<svg aria-hidden="true" style="position: absolute; width: 0; height: 0; overflow: hidden;" version="1.1"
    xmlns="http://www.w3.org/2000/svg" xmlns:xlink="http://www.w3.org/1999/xlink">
    <defs>
        <symbol id="icon-Home-1" viewBox="0 0 32 32">
            <path
                d="M16.3 0.005c-0.089-0.004-0.194-0.006-0.3-0.006s-0.21 0.002-0.315 0.006l0.015-0c-1.321 0.050-2.509 0.508-3.812 1.27-1.27 0.743-2.733 1.827-4.588 3.203l-0.101 0.075c-1.856 1.376-3.317 2.46-4.403 3.463-1.113 1.029-1.907 2.041-2.362 3.307-0.068 0.192-0.13 0.386-0.186 0.582-0.362 1.297-0.302 2.592 0.007 4.094 0.3 1.462 0.859 3.217 1.568 5.443l2.468 7.755c0.531 1.67 2.058 2.802 3.779 2.802 2.196 0 3.975-1.817 3.975-4.057v-3.994c0-0.937 0.743-1.695 1.661-1.695h4.585c0.917 0 1.661 0.758 1.661 1.695v3.994c0 2.24 1.779 4.057 3.975 4.057 1.722 0 3.248-1.132 3.78-2.803l2.469-7.755c0.708-2.226 1.267-3.981 1.568-5.443 0.307-1.501 0.367-2.796 0.005-4.093-0.071-0.257-0.134-0.45-0.204-0.641l0.019 0.059c-0.454-1.266-1.248-2.277-2.362-3.307-1.086-1.003-2.548-2.087-4.403-3.463l-0.101-0.075c-1.855-1.376-3.317-2.46-4.587-3.203-1.306-0.763-2.494-1.22-3.814-1.269zM15.778 2.183c0.148-0.005 0.295-0.005 0.444 0 0.848 0.032 1.692 0.318 2.829 0.982 1.158 0.678 2.528 1.692 4.445 3.114 1.917 1.421 3.285 2.437 4.275 3.353 0.971 0.897 1.499 1.628 1.79 2.441 0.050 0.142 0.096 0.286 0.137 0.431 0.233 0.832 0.227 1.741-0.042 3.049-0.274 1.333-0.795 2.977-1.527 5.277l-2.45 7.695c-0.24 0.754-0.931 1.292-1.749 1.297h-0.001c-1.017 0-1.841-0.841-1.841-1.877v-3.994c0-2.14-1.699-3.874-3.795-3.874h-4.586c-2.096 0-3.795 1.734-3.795 3.874v3.994c0 1.037-0.825 1.877-1.841 1.877-0.797 0-1.504-0.524-1.749-1.297l-2.449-7.695c-0.732-2.3-1.253-3.942-1.527-5.277-0.269-1.308-0.274-2.217-0.043-3.049 0.042-0.145 0.086-0.288 0.139-0.431 0.29-0.813 0.818-1.543 1.789-2.441 0.99-0.915 2.357-1.931 4.275-3.353 1.917-1.422 3.286-2.435 4.445-3.114 1.137-0.665 1.981-0.95 2.829-0.982z">
            </path>
        </symbol>
        <symbol id="icon-Close" viewBox="0 0 32 32">
            <path stroke-linejoin="miter" stroke-linecap="round" stroke-miterlimit="4" stroke-width="3.3684"
                d="M29.912 4.049c0.235-0.248 0.38-0.584 0.38-0.954 0-0.766-0.621-1.386-1.386-1.386-0.37 0-0.707 0.145-0.955 0.382l0.001-0.001-11.951 11.951-11.951-11.953c-0.254-0.274-0.616-0.445-1.018-0.445-0.766 0-1.386 0.621-1.386 1.386 0 0.402 0.171 0.764 0.444 1.017l0.001 0.001 11.951 11.953-11.953 11.951c-0.274 0.254-0.445 0.616-0.445 1.018 0 0.766 0.621 1.386 1.386 1.386 0.402 0 0.764-0.171 1.017-0.444l0.001-0.001 11.953-11.951 11.951 11.951c0.246 0.228 0.577 0.368 0.941 0.368 0.766 0 1.386-0.621 1.386-1.386 0-0.364-0.14-0.695-0.369-0.942l0.001 0.001-11.951-11.951 11.951-11.951z">
            </path>
        </symbol>
        <symbol id="icon-Play" viewBox="0 0 32 32">
            <path
                d="M20.451 4.852c-2.996-1.621-5.323-2.88-7.213-3.697-1.898-0.819-3.545-1.282-5.146-1.123-2.542 0.249-4.854 1.499-6.363 3.442-0.951 1.23-1.348 2.805-1.54 4.756-0.19 1.943-0.19 4.462-0.19 7.701v0.135c0 3.239 0 5.76 0.19 7.702 0.192 1.952 0.588 3.527 1.54 4.756 1.508 1.945 3.821 3.194 6.363 3.443 1.601 0.158 3.248-0.305 5.146-1.124 1.889-0.817 4.217-2.076 7.213-3.697l0.122-0.065c2.995-1.621 5.323-2.88 7.023-4.005 1.705-1.129 2.962-2.236 3.62-3.622 0.495-1.010 0.784-2.199 0.784-3.455s-0.289-2.444-0.805-3.502l0.021 0.047c-0.658-1.387-1.916-2.494-3.62-3.622-1.7-1.125-4.028-2.385-7.023-4.005l-0.122-0.065z">
            </path>
        </symbol>
        <symbol id="icon-Refresh-2" viewBox="0 0 32 32">
            <path
                d="M2.52 16.053c0-0.473-0.384-0.857-0.857-0.857s-0.857 0.384-0.857 0.857v0h1.714zM29.48 16.053c0 0.473 0.384 0.857 0.857 0.857s0.857-0.384 0.857-0.857v0h-1.714zM5.104 7.55l0.59 0.622 0.018-0.017 0.017-0.018-0.625-0.586zM26.896 24.555l0.625 0.587 0.011-0.011 0.011-0.014-0.648-0.562zM4.33 1.667c0-0.001 0-0.003 0-0.004 0-0.473-0.384-0.857-0.857-0.857-0.472 0-0.855 0.381-0.857 0.853v0l1.714 0.008zM3.461 4.262v0zM8.736 9.074v0zM11.587 9.92c0.472-0.002 0.853-0.385 0.853-0.857 0-0.473-0.384-0.857-0.857-0.857-0.001 0-0.003 0-0.004 0h0l0.008 1.714zM4.046 8.077v0zM4.554 8.539v0zM27.554 30.334c0 0.001 0 0.003 0 0.004 0 0.473 0.384 0.857 0.857 0.857 0.472 0 0.855-0.381 0.857-0.853v-0l-1.714-0.008zM28.425 27.739l0.857 0.005-0.857-0.003zM23.149 22.926v0zM20.298 22.080c-0.472 0.002-0.854 0.385-0.854 0.857 0 0.473 0.384 0.857 0.857 0.857 0.001 0 0.002 0 0.004 0h-0l-0.007-1.714zM27.839 23.923v0zM27.33 23.461v0zM4.286 8.325v0zM16 28.278c-7.52 0-13.48-5.545-13.48-12.225h-1.714c0 7.771 6.878 13.939 15.194 13.939v-1.714zM16 3.827c7.52 0 13.481 5.546 13.481 12.225h1.714c0-7.771-6.88-13.939-15.195-13.939v1.714zM5.729 8.137c2.465-2.629 6.143-4.31 10.271-4.31v-1.714c-4.594 0-8.727 1.872-11.52 4.849l1.248 1.175zM26.271 23.97c-2.465 2.627-6.143 4.309-10.271 4.309v1.714c4.594 0 8.727-1.871 11.521-4.849l-1.25-1.174zM2.617 1.658l-0.013 2.598 1.714 0.008 0.011-2.598-1.714-0.008zM8.739 9.931l2.848-0.011-0.008-1.714-2.846 0.011 0.006 1.714zM2.602 4.256c-0.005 1.014-0.010 1.854 0.071 2.526 0.082 0.694 0.267 1.317 0.72 1.849l1.306-1.109c-0.15-0.177-0.263-0.426-0.325-0.945-0.065-0.541-0.063-1.255-0.057-2.313l-1.714-0.008zM8.734 8.217c-1.154 0.005-1.952 0.007-2.562-0.054-0.598-0.059-0.906-0.171-1.122-0.323l-0.989 1.4c0.562 0.397 1.209 0.557 1.941 0.629 0.72 0.072 1.623 0.067 2.739 0.063l-0.007-1.714zM29.271 30.343l0.011-2.599-1.714-0.008-0.011 2.598 1.714 0.008zM23.145 22.069l-2.846 0.011 0.007 1.714 2.846-0.011-0.006-1.714zM29.282 27.744c0.006-1.014 0.011-1.854-0.069-2.526-0.083-0.694-0.269-1.317-0.72-1.849l-1.307 1.109c0.15 0.177 0.263 0.426 0.325 0.945 0.065 0.541 0.063 1.255 0.057 2.313l1.714 0.008zM23.153 23.783c1.154-0.005 1.953-0.007 2.562 0.054 0.598 0.059 0.907 0.171 1.122 0.323l0.989-1.4c-0.561-0.397-1.209-0.557-1.941-0.629-0.72-0.072-1.623-0.067-2.739-0.063l0.007 1.714zM3.392 8.631c0.098 0.115 0.203 0.225 0.317 0.327l1.154-1.267c-0.058-0.053-0.112-0.108-0.161-0.167l-0.002-0.003-1.307 1.109zM3.709 8.958c0.111 0.101 0.229 0.194 0.351 0.282l0.989-1.4c-0.069-0.049-0.129-0.098-0.187-0.15l0.002 0.001-1.154 1.266zM4.514 6.927l-0.818 0.775 1.178 1.246 0.819-0.776-1.179-1.245zM28.493 23.369c-0.088-0.103-0.177-0.196-0.27-0.284l-0.002-0.002-1.176 1.248c0.050 0.046 0.097 0.096 0.141 0.147l1.307-1.109zM28.221 23.083c-0.119-0.113-0.248-0.219-0.384-0.316l-0.011-0.007-0.989 1.4c0.074 0.054 0.144 0.11 0.209 0.171l1.175-1.248zM27.543 25.118l0.737-0.848-1.294-1.125-0.737 0.849 1.294 1.123z">
            </path>
        </symbol>
        <symbol id="icon-Setting" viewBox="0 0 32 32">
            <path
                d="M6.482 6.636v0zM11.775 3.878v0zM2.257 13.242v0zM2.257 18.759v0zM6.482 25.364v0zM11.775 28.122v0zM20.225 28.122v0zM25.518 25.364v0zM29.743 18.759v0zM29.743 13.241v0.001zM25.518 6.636v0zM20.225 3.878v0zM6.316 7.368c2.626 0.594 5.39-0.783 6.174-3.264l-1.43-0.453c-0.517 1.635-2.438 2.7-4.413 2.254l-0.33 1.463zM2.768 12.693c-1.248-1.164-1.256-2.65-0.528-3.789 0.739-1.154 2.248-1.95 4.076-1.536l0.331-1.463c-2.459-0.557-4.6 0.517-5.67 2.19-1.081 1.691-1.058 3.992 0.769 5.695l1.022-1.097zM2.768 19.307c1.968-1.834 1.968-4.78 0-6.614l-1.022 1.097c1.33 1.241 1.33 3.179 0 4.42l1.022 1.097zM6.316 24.632c-1.828 0.414-3.337-0.382-4.076-1.536-0.728-1.138-0.72-2.625 0.528-3.789l-1.022-1.097c-1.827 1.703-1.85 4.004-0.77 5.694 1.072 1.674 3.212 2.748 5.671 2.191l-0.33-1.463zM12.49 27.896c-0.784-2.481-3.548-3.858-6.174-3.264l0.331 1.463c1.975-0.446 3.896 0.619 4.413 2.254l1.43-0.453zM19.51 27.896c-0.485 1.532-1.943 2.354-3.51 2.354s-3.025-0.822-3.51-2.354l-1.43 0.453c0.729 2.304 2.889 3.401 4.94 3.401s4.211-1.097 4.94-3.401l-1.43-0.453zM25.684 24.632c-2.626-0.594-5.39 0.783-6.174 3.264l1.43 0.453c0.517-1.635 2.438-2.7 4.413-2.254l0.33-1.463zM29.232 19.307c1.248 1.164 1.256 2.65 0.527 3.789-0.738 1.154-2.247 1.95-4.075 1.536l-0.331 1.463c2.459 0.557 4.6-0.517 5.67-2.19 1.081-1.691 1.058-3.992-0.768-5.695l-1.023 1.097zM29.232 12.693c-1.968 1.834-1.968 4.78 0 6.614l1.023-1.097c-1.332-1.241-1.332-3.179 0-4.42l-1.023-1.097zM25.684 7.368c1.828-0.414 3.337 0.382 4.075 1.536 0.729 1.138 0.72 2.625-0.527 3.789l1.023 1.097c1.826-1.703 1.85-4.004 0.768-5.694-1.070-1.674-3.211-2.748-5.67-2.191l0.33 1.463zM19.51 4.104c0.784 2.481 3.548 3.858 6.174 3.264l-0.331-1.463c-1.975 0.446-3.896-0.619-4.413-2.254l-1.43 0.453zM20.94 3.651c-0.729-2.304-2.889-3.401-4.94-3.401s-4.211 1.097-4.94 3.401l1.43 0.453c0.485-1.532 1.943-2.354 3.51-2.354s3.025 0.822 3.51 2.354l1.43-0.453zM10.544 16c0 2.83 2.517 4.998 5.456 4.998v-1.5c-2.259 0-3.956-1.637-3.956-3.498h-1.5zM16 20.998c2.939 0 5.456-2.168 5.456-4.998h-1.5c0 1.861-1.697 3.498-3.956 3.498v1.5zM21.456 16c0-2.83-2.517-4.998-5.456-4.998v1.5c2.259 0 3.956 1.637 3.956 3.498h1.5zM16 11.002c-2.939 0-5.456 2.167-5.456 4.998h1.5c0-1.861 1.697-3.498 3.956-3.498v-1.5z">
            </path>
        </symbol>
        <symbol id="icon-Tick" viewBox="0 0 45 32">
            <path
                d="M44.355 3.332c0.678-0.861 0.57-2.143-0.246-2.861-0.325-0.292-0.758-0.47-1.232-0.47-0.599 0-1.131 0.284-1.468 0.726l-0.003 0.004-13.801 17.523c-2.771 3.519-4.722 5.987-6.413 7.603-1.651 1.578-2.793 2.080-3.912 2.080s-2.259-0.502-3.912-2.080c-1.691-1.617-3.642-4.084-6.413-7.603l-3.561-4.521c-0.341-0.446-0.873-0.731-1.472-0.731-0.474 0-0.906 0.178-1.233 0.471l0.002-0.002c-0.815 0.719-0.925 1.999-0.246 2.862l3.658 4.646c2.65 3.364 4.773 6.060 6.692 7.892 1.981 1.893 4.006 3.127 6.484 3.127s4.503-1.234 6.484-3.127c1.919-1.833 4.041-4.529 6.692-7.894l13.898-17.647z">
            </path>
        </symbol>
        <symbol id="icon-pause" viewBox="0 0 32 32">
            <path
                d="M4.267 0h4.267c2.356 0 4.267 1.91 4.267 4.267v23.467c0 2.356-1.91 4.267-4.267 4.267h-4.267c-2.356 0-4.267-1.91-4.267-4.267v-23.467c0-2.356 1.91-4.267 4.267-4.267z">
            </path>
            <path
                d="M23.467 0h4.267c2.356 0 4.267 1.91 4.267 4.267v23.467c0 2.356-1.91 4.267-4.267 4.267h-4.267c-2.356 0-4.267-1.91-4.267-4.267v-23.467c0-2.356 1.91-4.267 4.267-4.267z">
            </path>
        </symbol>
    </defs>
</svg>